<mxfile host="65bd71144e">
    <diagram id="xEvMHSTFfo-7VZ9vLJLP" name="Página-1">
        <mxGraphModel dx="834" dy="280" grid="1" gridSize="10" guides="1" tooltips="1" connect="1" arrows="1" fold="1" page="1" pageScale="1" pageWidth="827" pageHeight="1169" math="0" shadow="0">
            <root>
                <mxCell id="0"/>
                <mxCell id="1" parent="0"/>
                <mxCell id="2" value="Usuario&lt;br&gt;MensajesUsuario&lt;br&gt;MensajesIA&lt;br&gt;Correo&lt;br&gt;Contraseña" style="rounded=0;whiteSpace=wrap;html=1;" vertex="1" parent="1">
                    <mxGeometry x="40" y="40" width="200" height="120" as="geometry"/>
                </mxCell>
            </root>
        </mxGraphModel>
    </diagram>
</mxfile>